<?xml version="1.0" encoding="utf-8" standalone="no"?>
<!DOCTYPE svg PUBLIC "-//W3C//DTD SVG 1.1//EN"
  "http://www.w3.org/Graphics/SVG/1.1/DTD/svg11.dtd">
<svg xmlns:xlink="http://www.w3.org/1999/xlink" width="373.772562pt" height="269.382551pt" viewBox="0 0 373.772562 269.382551" xmlns="http://www.w3.org/2000/svg" version="1.1">
 <metadata>
  <rdf:RDF xmlns:dc="http://purl.org/dc/elements/1.1/" xmlns:cc="http://creativecommons.org/ns#" xmlns:rdf="http://www.w3.org/1999/02/22-rdf-syntax-ns#">
   <cc:Work>
    <dc:type rdf:resource="http://purl.org/dc/dcmitype/StillImage"/>
    <dc:date>2024-01-10T09:16:39.407897</dc:date>
    <dc:format>image/svg+xml</dc:format>
    <dc:creator>
     <cc:Agent>
      <dc:title>Matplotlib v3.8.0, https://matplotlib.org/</dc:title>
     </cc:Agent>
    </dc:creator>
   </cc:Work>
  </rdf:RDF>
 </metadata>
 <defs>
  <style type="text/css">*{stroke-linejoin: round; stroke-linecap: butt}</style>
 </defs>
 <g id="figure_1">
  <g id="patch_1">
   <path d="M 0 269.382551 
L 373.772562 269.382551 
L 373.772562 0 
L 0 0 
z
" style="fill: #ffffff"/>
  </g>
  <g id="axes_1">
   <g id="patch_2">
    <path d="M 190.144319 53.218379 
C 177.536367 42.29493 162.282902 34.864355 145.909811 31.669976 
C 129.536719 28.475596 112.608798 29.627604 96.819439 35.010756 
C 81.03008 40.393909 66.923944 49.822513 55.912145 62.353373 
C 44.900346 74.884233 37.362739 90.085093 34.053354 106.435327 
C 30.743969 122.785561 31.776963 139.721161 37.049001 155.547968 
C 42.321039 171.374774 51.65026 185.546834 64.10341 196.64644 
C 76.55656 207.746045 91.704063 215.39031 108.030632 218.814537 
C 124.357201 222.238765 141.299644 221.324834 157.163115 216.164172 
C 144.383222 205.091753 134.771425 190.820362 129.31486 174.815674 
C 123.858294 158.810987 122.750378 141.640321 126.104895 125.067109 
C 129.459412 108.493898 137.157455 93.105611 148.408432 80.48263 
C 159.659409 67.859649 174.064508 58.449421 190.144319 53.218379 
" clip-path="url(#p24a90fb4c3)" style="fill: #ff0000; opacity: 0.4"/>
   </g>
   <g id="patch_3">
    <path d="M 290.620204 207.900397 
C 302.022374 202.743521 312.233018 195.279076 320.606408 185.979118 
C 328.979797 176.679161 335.33562 165.743957 339.271931 153.865054 
C 343.208241 141.986152 344.640275 129.419352 343.477468 116.959386 
C 342.314661 104.49942 338.582054 92.414603 332.5157 81.469183 
C 326.449345 70.523764 318.179876 60.953442 308.230258 53.36345 
C 298.280641 45.773459 286.86513 40.327241 274.705649 37.369219 
C 262.546169 34.411196 249.904561 34.005068 237.58029 36.176516 
C 225.256018 38.347965 213.514473 43.050231 203.098198 49.985941 
C 222.671747 46.534011 242.84312 49.279051 260.782436 57.835955 
C 278.721752 66.392859 293.548939 80.34184 303.183863 97.725967 
C 312.818786 115.110095 316.788774 135.076536 314.536869 154.824158 
C 312.284964 174.571779 303.92164 193.1318 290.620204 207.900397 
" clip-path="url(#p24a90fb4c3)" style="fill: #008000; opacity: 0.4"/>
   </g>
   <g id="patch_4">
    <path d="M 190.144319 53.218379 
C 190.818461 53.802452 191.484385 54.395944 192.141895 54.99868 
C 192.799405 55.601415 193.448435 56.213336 194.088796 56.834261 
C 195.51717 55.600392 196.983765 54.411475 198.486433 53.269252 
C 199.989101 52.127028 201.527107 51.032057 203.098198 49.985941 
C 200.904819 50.372758 198.725648 50.83621 196.564685 51.375444 
C 194.403721 51.914679 192.262289 52.529367 190.144319 53.218379 
M 157.163115 216.164172 
C 176.052988 232.530238 200.634172 240.841466 225.579902 239.296805 
C 250.525631 237.752145 273.893692 226.471859 290.620204 207.900397 
C 274.874271 215.021834 257.414275 217.490151 240.311328 215.012556 
C 223.208381 212.534961 207.166576 205.213452 194.088796 193.916508 
C 188.880095 198.967121 183.112606 203.40757 176.898105 207.151796 
C 170.683604 210.896023 164.062501 213.919682 157.163115 216.164172 
" clip-path="url(#p24a90fb4c3)" style="fill: #0000ff; opacity: 0.4"/>
   </g>
   <g id="patch_5">
    <path d="M 194.088796 56.834261 
C 193.448435 56.213336 192.799405 55.601415 192.141895 54.99868 
C 191.484385 54.395944 190.818461 53.802452 190.144319 53.218379 
C 174.064508 58.449421 159.659409 67.859649 148.408432 80.48263 
C 137.157455 93.105611 129.459412 108.493898 126.104895 125.067109 
C 122.750378 141.640321 123.858294 158.810987 129.31486 174.815674 
C 134.771425 190.820362 144.383222 205.091753 157.163115 216.164172 
C 164.062501 213.919682 170.683604 210.896023 176.898105 207.151796 
C 183.112606 203.40757 188.880095 198.967121 194.088796 193.916508 
C 184.246185 185.414191 176.349495 174.890663 170.937385 163.063768 
C 165.525274 151.236872 162.723666 138.381782 162.723666 125.375384 
C 162.723666 112.368986 165.525274 99.513896 170.937385 87.687001 
C 176.349495 75.860105 184.246185 65.336578 194.088796 56.834261 
" clip-path="url(#p24a90fb4c3)" style="fill: #b200b2; opacity: 0.4"/>
   </g>
   <g id="patch_6">
    <path d="M 194.088796 193.916508 
C 207.166576 205.213452 223.208381 212.534961 240.311328 215.012556 
C 257.414275 217.490151 274.874271 215.021834 290.620204 207.900397 
C 303.92164 193.1318 312.284964 174.571779 314.536869 154.824158 
C 316.788774 135.076536 312.818786 115.110095 303.183863 97.725967 
C 293.548939 80.34184 278.721752 66.392859 260.782436 57.835955 
C 242.84312 49.279051 222.671747 46.534011 203.098198 49.985941 
C 201.527107 51.032057 199.989101 52.127028 198.486433 53.269252 
C 196.983765 54.411475 195.51717 55.600392 194.088796 56.834261 
C 203.267267 65.734158 210.565217 76.387715 215.548621 88.161338 
C 220.532024 99.934962 223.10009 112.590529 223.10009 125.375384 
C 223.10009 138.160239 220.532024 150.815807 215.548621 162.58943 
C 210.565217 174.363053 203.267267 185.01661 194.088796 193.916508 
" clip-path="url(#p24a90fb4c3)" style="fill: #0059b2; opacity: 0.4"/>
   </g>
   <g id="patch_7">
    <path d="M 194.088796 193.916508 
C 203.267267 185.01661 210.565217 174.363053 215.548621 162.58943 
C 220.532024 150.815807 223.10009 138.160239 223.10009 125.375384 
C 223.10009 112.590529 220.532024 99.934962 215.548621 88.161338 
C 210.565217 76.387715 203.267267 65.734158 194.088796 56.834261 
C 184.246185 65.336578 176.349495 75.860105 170.937385 87.687001 
C 165.525274 99.513896 162.723666 112.368986 162.723666 125.375384 
C 162.723666 138.381782 165.525274 151.236872 170.937385 163.063768 
C 176.349495 174.890663 184.246185 185.414191 194.088796 193.916508 
" clip-path="url(#p24a90fb4c3)" style="fill: #663366; opacity: 0.4"/>
   </g>
   <g id="text_1">
    <!-- 6 -->
    <g transform="translate(76.897875 118.510593) scale(0.1 -0.1)">
     <defs>
      <path id="DejaVuSans-36" d="M 2113 2584 
Q 1688 2584 1439 2293 
Q 1191 2003 1191 1497 
Q 1191 994 1439 701 
Q 1688 409 2113 409 
Q 2538 409 2786 701 
Q 3034 994 3034 1497 
Q 3034 2003 2786 2293 
Q 2538 2584 2113 2584 
z
M 3366 4563 
L 3366 3988 
Q 3128 4100 2886 4159 
Q 2644 4219 2406 4219 
Q 1781 4219 1451 3797 
Q 1122 3375 1075 2522 
Q 1259 2794 1537 2939 
Q 1816 3084 2150 3084 
Q 2853 3084 3261 2657 
Q 3669 2231 3669 1497 
Q 3669 778 3244 343 
Q 2819 -91 2113 -91 
Q 1303 -91 875 529 
Q 447 1150 447 2328 
Q 447 3434 972 4092 
Q 1497 4750 2381 4750 
Q 2619 4750 2861 4703 
Q 3103 4656 3366 4563 
z
" transform="scale(0.015625)"/>
     </defs>
     <use xlink:href="#DejaVuSans-36"/>
    </g>
   </g>
   <g id="text_2">
    <!-- 2 -->
    <g transform="translate(314.668531 92.35695) scale(0.1 -0.1)">
     <defs>
      <path id="DejaVuSans-32" d="M 1228 531 
L 3431 531 
L 3431 0 
L 469 0 
L 469 531 
Q 828 903 1448 1529 
Q 2069 2156 2228 2338 
Q 2531 2678 2651 2914 
Q 2772 3150 2772 3378 
Q 2772 3750 2511 3984 
Q 2250 4219 1831 4219 
Q 1534 4219 1204 4116 
Q 875 4013 500 3803 
L 500 4441 
Q 881 4594 1212 4672 
Q 1544 4750 1819 4750 
Q 2544 4750 2975 4387 
Q 3406 4025 3406 3419 
Q 3406 3131 3298 2873 
Q 3191 2616 2906 2266 
Q 2828 2175 2409 1742 
Q 1991 1309 1228 531 
z
" transform="scale(0.015625)"/>
     </defs>
     <use xlink:href="#DejaVuSans-32"/>
    </g>
   </g>
   <g id="text_3">
    <!-- 1 -->
    <g transform="translate(220.674715 228.616534) scale(0.1 -0.1)">
     <defs>
      <path id="DejaVuSans-31" d="M 794 531 
L 1825 531 
L 1825 4091 
L 703 3866 
L 703 4441 
L 1819 4666 
L 2450 4666 
L 2450 531 
L 3481 531 
L 3481 0 
L 794 0 
L 794 531 
z
" transform="scale(0.015625)"/>
     </defs>
     <use xlink:href="#DejaVuSans-31"/>
    </g>
   </g>
   <g id="text_4">
    <!-- 2 -->
    <g transform="translate(143.5852 135.655594) scale(0.1 -0.1)">
     <use xlink:href="#DejaVuSans-32"/>
    </g>
   </g>
   <g id="text_5">
    <!-- 5 -->
    <g transform="translate(260.160401 132.700283) scale(0.1 -0.1)">
     <defs>
      <path id="DejaVuSans-35" d="M 691 4666 
L 3169 4666 
L 3169 4134 
L 1269 4134 
L 1269 2991 
Q 1406 3038 1543 3061 
Q 1681 3084 1819 3084 
Q 2600 3084 3056 2656 
Q 3513 2228 3513 1497 
Q 3513 744 3044 326 
Q 2575 -91 1722 -91 
Q 1428 -91 1123 -41 
Q 819 9 494 109 
L 494 744 
Q 775 591 1075 516 
Q 1375 441 1709 441 
Q 2250 441 2565 725 
Q 2881 1009 2881 1497 
Q 2881 1984 2565 2268 
Q 2250 2553 1709 2553 
Q 1456 2553 1204 2497 
Q 953 2441 691 2322 
L 691 4666 
z
" transform="scale(0.015625)"/>
     </defs>
     <use xlink:href="#DejaVuSans-35"/>
    </g>
   </g>
   <g id="text_6">
    <!-- 2 -->
    <g transform="translate(189.730628 128.134759) scale(0.1 -0.1)">
     <use xlink:href="#DejaVuSans-32"/>
    </g>
   </g>
   <g id="text_7">
    <!-- BCoordLang -->
    <g transform="translate(7.2 29.903241) scale(0.12 -0.12)">
     <defs>
      <path id="DejaVuSans-42" d="M 1259 2228 
L 1259 519 
L 2272 519 
Q 2781 519 3026 730 
Q 3272 941 3272 1375 
Q 3272 1813 3026 2020 
Q 2781 2228 2272 2228 
L 1259 2228 
z
M 1259 4147 
L 1259 2741 
L 2194 2741 
Q 2656 2741 2882 2914 
Q 3109 3088 3109 3444 
Q 3109 3797 2882 3972 
Q 2656 4147 2194 4147 
L 1259 4147 
z
M 628 4666 
L 2241 4666 
Q 2963 4666 3353 4366 
Q 3744 4066 3744 3513 
Q 3744 3084 3544 2831 
Q 3344 2578 2956 2516 
Q 3422 2416 3680 2098 
Q 3938 1781 3938 1306 
Q 3938 681 3513 340 
Q 3088 0 2303 0 
L 628 0 
L 628 4666 
z
" transform="scale(0.015625)"/>
      <path id="DejaVuSans-43" d="M 4122 4306 
L 4122 3641 
Q 3803 3938 3442 4084 
Q 3081 4231 2675 4231 
Q 1875 4231 1450 3742 
Q 1025 3253 1025 2328 
Q 1025 1406 1450 917 
Q 1875 428 2675 428 
Q 3081 428 3442 575 
Q 3803 722 4122 1019 
L 4122 359 
Q 3791 134 3420 21 
Q 3050 -91 2638 -91 
Q 1578 -91 968 557 
Q 359 1206 359 2328 
Q 359 3453 968 4101 
Q 1578 4750 2638 4750 
Q 3056 4750 3426 4639 
Q 3797 4528 4122 4306 
z
" transform="scale(0.015625)"/>
      <path id="DejaVuSans-6f" d="M 1959 3097 
Q 1497 3097 1228 2736 
Q 959 2375 959 1747 
Q 959 1119 1226 758 
Q 1494 397 1959 397 
Q 2419 397 2687 759 
Q 2956 1122 2956 1747 
Q 2956 2369 2687 2733 
Q 2419 3097 1959 3097 
z
M 1959 3584 
Q 2709 3584 3137 3096 
Q 3566 2609 3566 1747 
Q 3566 888 3137 398 
Q 2709 -91 1959 -91 
Q 1206 -91 779 398 
Q 353 888 353 1747 
Q 353 2609 779 3096 
Q 1206 3584 1959 3584 
z
" transform="scale(0.015625)"/>
      <path id="DejaVuSans-72" d="M 2631 2963 
Q 2534 3019 2420 3045 
Q 2306 3072 2169 3072 
Q 1681 3072 1420 2755 
Q 1159 2438 1159 1844 
L 1159 0 
L 581 0 
L 581 3500 
L 1159 3500 
L 1159 2956 
Q 1341 3275 1631 3429 
Q 1922 3584 2338 3584 
Q 2397 3584 2469 3576 
Q 2541 3569 2628 3553 
L 2631 2963 
z
" transform="scale(0.015625)"/>
      <path id="DejaVuSans-64" d="M 2906 2969 
L 2906 4863 
L 3481 4863 
L 3481 0 
L 2906 0 
L 2906 525 
Q 2725 213 2448 61 
Q 2172 -91 1784 -91 
Q 1150 -91 751 415 
Q 353 922 353 1747 
Q 353 2572 751 3078 
Q 1150 3584 1784 3584 
Q 2172 3584 2448 3432 
Q 2725 3281 2906 2969 
z
M 947 1747 
Q 947 1113 1208 752 
Q 1469 391 1925 391 
Q 2381 391 2643 752 
Q 2906 1113 2906 1747 
Q 2906 2381 2643 2742 
Q 2381 3103 1925 3103 
Q 1469 3103 1208 2742 
Q 947 2381 947 1747 
z
" transform="scale(0.015625)"/>
      <path id="DejaVuSans-4c" d="M 628 4666 
L 1259 4666 
L 1259 531 
L 3531 531 
L 3531 0 
L 628 0 
L 628 4666 
z
" transform="scale(0.015625)"/>
      <path id="DejaVuSans-61" d="M 2194 1759 
Q 1497 1759 1228 1600 
Q 959 1441 959 1056 
Q 959 750 1161 570 
Q 1363 391 1709 391 
Q 2188 391 2477 730 
Q 2766 1069 2766 1631 
L 2766 1759 
L 2194 1759 
z
M 3341 1997 
L 3341 0 
L 2766 0 
L 2766 531 
Q 2569 213 2275 61 
Q 1981 -91 1556 -91 
Q 1019 -91 701 211 
Q 384 513 384 1019 
Q 384 1609 779 1909 
Q 1175 2209 1959 2209 
L 2766 2209 
L 2766 2266 
Q 2766 2663 2505 2880 
Q 2244 3097 1772 3097 
Q 1472 3097 1187 3025 
Q 903 2953 641 2809 
L 641 3341 
Q 956 3463 1253 3523 
Q 1550 3584 1831 3584 
Q 2591 3584 2966 3190 
Q 3341 2797 3341 1997 
z
" transform="scale(0.015625)"/>
      <path id="DejaVuSans-6e" d="M 3513 2113 
L 3513 0 
L 2938 0 
L 2938 2094 
Q 2938 2591 2744 2837 
Q 2550 3084 2163 3084 
Q 1697 3084 1428 2787 
Q 1159 2491 1159 1978 
L 1159 0 
L 581 0 
L 581 3500 
L 1159 3500 
L 1159 2956 
Q 1366 3272 1645 3428 
Q 1925 3584 2291 3584 
Q 2894 3584 3203 3211 
Q 3513 2838 3513 2113 
z
" transform="scale(0.015625)"/>
      <path id="DejaVuSans-67" d="M 2906 1791 
Q 2906 2416 2648 2759 
Q 2391 3103 1925 3103 
Q 1463 3103 1205 2759 
Q 947 2416 947 1791 
Q 947 1169 1205 825 
Q 1463 481 1925 481 
Q 2391 481 2648 825 
Q 2906 1169 2906 1791 
z
M 3481 434 
Q 3481 -459 3084 -895 
Q 2688 -1331 1869 -1331 
Q 1566 -1331 1297 -1286 
Q 1028 -1241 775 -1147 
L 775 -588 
Q 1028 -725 1275 -790 
Q 1522 -856 1778 -856 
Q 2344 -856 2625 -561 
Q 2906 -266 2906 331 
L 2906 616 
Q 2728 306 2450 153 
Q 2172 0 1784 0 
Q 1141 0 747 490 
Q 353 981 353 1791 
Q 353 2603 747 3093 
Q 1141 3584 1784 3584 
Q 2172 3584 2450 3431 
Q 2728 3278 2906 2969 
L 2906 3500 
L 3481 3500 
L 3481 434 
z
" transform="scale(0.015625)"/>
     </defs>
     <use xlink:href="#DejaVuSans-42"/>
     <use xlink:href="#DejaVuSans-43" x="66.853516"/>
     <use xlink:href="#DejaVuSans-6f" x="136.677734"/>
     <use xlink:href="#DejaVuSans-6f" x="197.859375"/>
     <use xlink:href="#DejaVuSans-72" x="259.041016"/>
     <use xlink:href="#DejaVuSans-64" x="298.404297"/>
     <use xlink:href="#DejaVuSans-4c" x="361.880859"/>
     <use xlink:href="#DejaVuSans-61" x="417.59375"/>
     <use xlink:href="#DejaVuSans-6e" x="478.873047"/>
     <use xlink:href="#DejaVuSans-67" x="542.251953"/>
    </g>
   </g>
   <g id="text_8">
    <!-- Linda -->
    <g transform="translate(298.582908 34.802557) scale(0.12 -0.12)">
     <defs>
      <path id="DejaVuSans-69" d="M 603 3500 
L 1178 3500 
L 1178 0 
L 603 0 
L 603 3500 
z
M 603 4863 
L 1178 4863 
L 1178 4134 
L 603 4134 
L 603 4863 
z
" transform="scale(0.015625)"/>
     </defs>
     <use xlink:href="#DejaVuSans-4c"/>
     <use xlink:href="#DejaVuSans-69" x="55.712891"/>
     <use xlink:href="#DejaVuSans-6e" x="83.496094"/>
     <use xlink:href="#DejaVuSans-64" x="146.875"/>
     <use xlink:href="#DejaVuSans-61" x="210.351562"/>
    </g>
   </g>
   <g id="text_9">
    <!-- MontiArc -->
    <g transform="translate(193.2748 258.144649) scale(0.12 -0.12)">
     <defs>
      <path id="DejaVuSans-4d" d="M 628 4666 
L 1569 4666 
L 2759 1491 
L 3956 4666 
L 4897 4666 
L 4897 0 
L 4281 0 
L 4281 4097 
L 3078 897 
L 2444 897 
L 1241 4097 
L 1241 0 
L 628 0 
L 628 4666 
z
" transform="scale(0.015625)"/>
      <path id="DejaVuSans-74" d="M 1172 4494 
L 1172 3500 
L 2356 3500 
L 2356 3053 
L 1172 3053 
L 1172 1153 
Q 1172 725 1289 603 
Q 1406 481 1766 481 
L 2356 481 
L 2356 0 
L 1766 0 
Q 1100 0 847 248 
Q 594 497 594 1153 
L 594 3053 
L 172 3053 
L 172 3500 
L 594 3500 
L 594 4494 
L 1172 4494 
z
" transform="scale(0.015625)"/>
      <path id="DejaVuSans-41" d="M 2188 4044 
L 1331 1722 
L 3047 1722 
L 2188 4044 
z
M 1831 4666 
L 2547 4666 
L 4325 0 
L 3669 0 
L 3244 1197 
L 1141 1197 
L 716 0 
L 50 0 
L 1831 4666 
z
" transform="scale(0.015625)"/>
      <path id="DejaVuSans-63" d="M 3122 3366 
L 3122 2828 
Q 2878 2963 2633 3030 
Q 2388 3097 2138 3097 
Q 1578 3097 1268 2742 
Q 959 2388 959 1747 
Q 959 1106 1268 751 
Q 1578 397 2138 397 
Q 2388 397 2633 464 
Q 2878 531 3122 666 
L 3122 134 
Q 2881 22 2623 -34 
Q 2366 -91 2075 -91 
Q 1284 -91 818 406 
Q 353 903 353 1747 
Q 353 2603 823 3093 
Q 1294 3584 2113 3584 
Q 2378 3584 2631 3529 
Q 2884 3475 3122 3366 
z
" transform="scale(0.015625)"/>
     </defs>
     <use xlink:href="#DejaVuSans-4d"/>
     <use xlink:href="#DejaVuSans-6f" x="86.279297"/>
     <use xlink:href="#DejaVuSans-6e" x="147.460938"/>
     <use xlink:href="#DejaVuSans-74" x="210.839844"/>
     <use xlink:href="#DejaVuSans-69" x="250.048828"/>
     <use xlink:href="#DejaVuSans-41" x="277.832031"/>
     <use xlink:href="#DejaVuSans-72" x="346.240234"/>
     <use xlink:href="#DejaVuSans-63" x="385.103516"/>
    </g>
   </g>
  </g>
 </g>
 <defs>
  <clipPath id="p24a90fb4c3">
   <rect x="9.452562" y="7.2" width="357.12" height="254.982551"/>
  </clipPath>
 </defs>
</svg>
