<?xml version="1.0" encoding="utf-8" standalone="no"?>
<!DOCTYPE svg PUBLIC "-//W3C//DTD SVG 1.1//EN"
  "http://www.w3.org/Graphics/SVG/1.1/DTD/svg11.dtd">
<svg xmlns:xlink="http://www.w3.org/1999/xlink" width="371.52pt" height="274.125227pt" viewBox="0 0 371.52 274.125227" xmlns="http://www.w3.org/2000/svg" version="1.1">
 <metadata>
  <rdf:RDF xmlns:dc="http://purl.org/dc/elements/1.1/" xmlns:cc="http://creativecommons.org/ns#" xmlns:rdf="http://www.w3.org/1999/02/22-rdf-syntax-ns#">
   <cc:Work>
    <dc:type rdf:resource="http://purl.org/dc/dcmitype/StillImage"/>
    <dc:date>2024-01-25T14:06:51.197514</dc:date>
    <dc:format>image/svg+xml</dc:format>
    <dc:creator>
     <cc:Agent>
      <dc:title>Matplotlib v3.8.0, https://matplotlib.org/</dc:title>
     </cc:Agent>
    </dc:creator>
   </cc:Work>
  </rdf:RDF>
 </metadata>
 <defs>
  <style type="text/css">*{stroke-linejoin: round; stroke-linecap: butt}</style>
 </defs>
 <g id="figure_1">
  <g id="patch_1">
   <path d="M 0 274.125227 
L 371.52 274.125227 
L 371.52 0 
L 0 0 
z
" style="fill: #ffffff"/>
  </g>
  <g id="axes_1">
   <g id="patch_2">
    <path d="M 186.938775 49.817753 
C 173.914583 40.024955 158.649753 33.636125 142.532962 31.232471 
C 126.416172 28.828816 109.951435 30.485506 94.636587 36.051827 
C 79.32174 41.618148 65.635716 50.920028 54.823567 63.11125 
C 44.011418 75.302473 36.411266 90.00179 32.714517 105.871967 
C 29.017767 121.742144 29.340026 138.286882 33.651977 154.001065 
C 37.963928 169.715249 46.130726 184.107456 57.409416 195.868392 
C 68.688106 207.629329 82.725976 216.391201 98.245967 221.35692 
C 113.765958 226.322639 130.282721 227.336914 146.293685 224.307474 
C 131.12357 212.901171 119.591823 197.326829 113.108371 179.48864 
C 106.624918 161.650451 105.465218 142.306295 109.77106 123.821277 
C 114.076903 105.33626 123.665348 88.495743 137.364068 75.358726 
C 151.062788 62.221709 168.289774 53.346337 186.938775 49.817753 
" clip-path="url(#p18f2feb464)" style="fill: #ff0000; opacity: 0.4"/>
   </g>
   <g id="patch_3">
    <path d="M 270.434241 219.02284 
C 283.554787 215.728354 295.808218 209.632912 306.350874 201.156192 
C 316.893529 192.679471 325.477768 182.020586 331.512556 169.913411 
C 337.547344 157.806235 340.890929 144.53516 341.3131 131.013912 
C 341.735272 117.492664 339.226114 104.03885 333.958384 91.578778 
C 328.690654 79.118706 320.788089 67.945056 310.794787 58.827146 
C 300.801486 49.709235 288.952185 42.861238 276.062722 38.754645 
C 263.173258 34.648053 249.546398 33.379328 236.120363 35.035822 
C 222.694329 36.692316 209.784491 41.235119 198.279704 48.351455 
C 218.64462 46.920326 238.956124 51.892722 256.35702 62.569181 
C 273.757915 73.245641 287.392139 89.10092 295.341779 107.904674 
C 303.29142 126.708428 305.165383 147.535578 300.700061 167.456393 
C 296.234738 187.377207 285.649808 205.411652 270.434241 219.02284 
" clip-path="url(#p18f2feb464)" style="fill: #008000; opacity: 0.4"/>
   </g>
   <g id="patch_4">
    <path d="M 186.938775 49.817753 
C 187.662418 50.361855 188.378481 50.915967 189.086756 51.479928 
C 189.795031 52.043889 190.495452 52.617645 191.187815 53.201032 
C 192.331973 52.339123 193.495734 51.503549 194.678181 50.694968 
C 195.860628 49.886387 197.061451 49.105011 198.279704 48.351455 
C 196.377287 48.485146 194.479183 48.674382 192.587818 48.918922 
C 190.696453 49.163461 188.812636 49.4632 186.938775 49.817753 
M 146.293685 224.307474 
C 164.398733 237.920532 186.678054 244.838798 209.309447 243.875385 
C 231.94084 242.911972 253.551606 234.125316 270.434241 219.02284 
C 256.865228 222.429934 242.704101 222.757134 228.992208 219.98038 
C 215.280314 217.203625 202.362203 211.39269 191.187815 202.974885 
C 184.773918 208.379246 177.692207 212.93728 170.11675 216.536951 
C 162.541292 220.136623 154.53467 222.748194 146.293685 224.307474 
" clip-path="url(#p18f2feb464)" style="fill: #0000ff; opacity: 0.4"/>
   </g>
   <g id="patch_5">
    <path d="M 191.187815 53.201032 
C 190.495452 52.617645 189.795031 52.043889 189.086756 51.479928 
C 188.378481 50.915967 187.662418 50.361855 186.938775 49.817753 
C 168.289774 53.346337 151.062788 62.221709 137.364068 75.358726 
C 123.665348 88.495743 114.076903 105.33626 109.77106 123.821277 
C 105.465218 142.306295 106.624918 161.650451 113.108371 179.48864 
C 119.591823 197.326829 131.12357 212.901171 146.293685 224.307474 
C 154.53467 222.748194 162.541292 220.136623 170.11675 216.536951 
C 177.692207 212.93728 184.773918 208.379246 191.187815 202.974885 
C 179.589286 194.237569 170.17765 182.923969 163.697301 169.928907 
C 157.216951 156.933845 153.843364 142.609204 153.843364 128.087958 
C 153.843364 113.566713 157.216951 99.242072 163.697301 86.24701 
C 170.17765 73.251948 179.589286 61.938347 191.187815 53.201032 
" clip-path="url(#p18f2feb464)" style="fill: #b200b2; opacity: 0.4"/>
   </g>
   <g id="patch_6">
    <path d="M 191.187815 202.974885 
C 202.362203 211.39269 215.280314 217.203625 228.992208 219.98038 
C 242.704101 222.757134 256.865228 222.429934 270.434241 219.02284 
C 285.649808 205.411652 296.234738 187.377207 300.700061 167.456393 
C 305.165383 147.535578 303.29142 126.708428 295.341779 107.904674 
C 287.392139 89.10092 273.757915 73.245641 256.35702 62.569181 
C 238.956124 51.892722 218.64462 46.920326 198.279704 48.351455 
C 197.061451 49.105011 195.860628 49.886387 194.678181 50.694968 
C 193.495734 51.503549 192.331973 52.339123 191.187815 53.201032 
C 202.096785 62.39295 210.866635 73.858525 216.882119 86.793399 
C 222.897604 99.728272 226.014684 113.822721 226.014684 128.087958 
C 226.014684 142.353196 222.897604 156.447645 216.882119 169.382518 
C 210.866635 182.317391 202.096785 193.782967 191.187815 202.974885 
" clip-path="url(#p18f2feb464)" style="fill: #0059b2; opacity: 0.4"/>
   </g>
   <g id="patch_7">
    <path d="M 191.187815 202.974885 
C 202.096785 193.782967 210.866635 182.317391 216.882119 169.382518 
C 222.897604 156.447645 226.014684 142.353196 226.014684 128.087958 
C 226.014684 113.822721 222.897604 99.728272 216.882119 86.793399 
C 210.866635 73.858525 202.096785 62.39295 191.187815 53.201032 
C 179.589286 61.938347 170.17765 73.251948 163.697301 86.24701 
C 157.216951 99.242072 153.843364 113.566713 153.843364 128.087958 
C 153.843364 142.609204 157.216951 156.933845 163.697301 169.928907 
C 170.17765 182.923969 179.589286 194.237569 191.187815 202.974885 
" clip-path="url(#p18f2feb464)" style="fill: #663366; opacity: 0.4"/>
   </g>
   <g id="text_1">
    <!-- 6 -->
    <g transform="translate(68.061539 117.605997) scale(0.1 -0.1)">
     <defs>
      <path id="DejaVuSans-36" d="M 2113 2584 
Q 1688 2584 1439 2293 
Q 1191 2003 1191 1497 
Q 1191 994 1439 701 
Q 1688 409 2113 409 
Q 2538 409 2786 701 
Q 3034 994 3034 1497 
Q 3034 2003 2786 2293 
Q 2538 2584 2113 2584 
z
M 3366 4563 
L 3366 3988 
Q 3128 4100 2886 4159 
Q 2644 4219 2406 4219 
Q 1781 4219 1451 3797 
Q 1122 3375 1075 2522 
Q 1259 2794 1537 2939 
Q 1816 3084 2150 3084 
Q 2853 3084 3261 2657 
Q 3669 2231 3669 1497 
Q 3669 778 3244 343 
Q 2819 -91 2113 -91 
Q 1303 -91 875 529 
Q 447 1150 447 2328 
Q 447 3434 972 4092 
Q 1497 4750 2381 4750 
Q 2619 4750 2861 4703 
Q 3103 4656 3366 4563 
z
" transform="scale(0.015625)"/>
     </defs>
     <use xlink:href="#DejaVuSans-36"/>
    </g>
   </g>
   <g id="text_2">
    <!-- 3 -->
    <g transform="translate(311.468832 102.501101) scale(0.1 -0.1)">
     <defs>
      <path id="DejaVuSans-33" d="M 2597 2516 
Q 3050 2419 3304 2112 
Q 3559 1806 3559 1356 
Q 3559 666 3084 287 
Q 2609 -91 1734 -91 
Q 1441 -91 1130 -33 
Q 819 25 488 141 
L 488 750 
Q 750 597 1062 519 
Q 1375 441 1716 441 
Q 2309 441 2620 675 
Q 2931 909 2931 1356 
Q 2931 1769 2642 2001 
Q 2353 2234 1838 2234 
L 1294 2234 
L 1294 2753 
L 1863 2753 
Q 2328 2753 2575 2939 
Q 2822 3125 2822 3475 
Q 2822 3834 2567 4026 
Q 2313 4219 1838 4219 
Q 1578 4219 1281 4162 
Q 984 4106 628 3988 
L 628 4550 
Q 988 4650 1302 4700 
Q 1616 4750 1894 4750 
Q 2613 4750 3031 4423 
Q 3450 4097 3450 3541 
Q 3450 3153 3228 2886 
Q 3006 2619 2597 2516 
z
" transform="scale(0.015625)"/>
     </defs>
     <use xlink:href="#DejaVuSans-33"/>
    </g>
   </g>
   <g id="text_3">
    <!-- 1 -->
    <g transform="translate(205.205885 233.921208) scale(0.1 -0.1)">
     <defs>
      <path id="DejaVuSans-31" d="M 794 531 
L 1825 531 
L 1825 4091 
L 703 3866 
L 703 4441 
L 1819 4666 
L 2450 4666 
L 2450 531 
L 3481 531 
L 3481 0 
L 794 0 
L 794 531 
z
" transform="scale(0.015625)"/>
     </defs>
     <use xlink:href="#DejaVuSans-31"/>
    </g>
   </g>
   <g id="text_4">
    <!-- 3 -->
    <g transform="translate(131.313923 137.463143) scale(0.1 -0.1)">
     <use xlink:href="#DejaVuSans-33"/>
    </g>
   </g>
   <g id="text_5">
    <!-- 5 -->
    <g transform="translate(255.840217 135.600132) scale(0.1 -0.1)">
     <defs>
      <path id="DejaVuSans-35" d="M 691 4666 
L 3169 4666 
L 3169 4134 
L 1269 4134 
L 1269 2991 
Q 1406 3038 1543 3061 
Q 1681 3084 1819 3084 
Q 2600 3084 3056 2656 
Q 3513 2228 3513 1497 
Q 3513 744 3044 326 
Q 2575 -91 1722 -91 
Q 1428 -91 1123 -41 
Q 819 9 494 109 
L 494 744 
Q 775 591 1075 516 
Q 1375 441 1709 441 
Q 2250 441 2565 725 
Q 2881 1009 2881 1497 
Q 2881 1984 2565 2268 
Q 2250 2553 1709 2553 
Q 1456 2553 1204 2497 
Q 953 2441 691 2322 
L 691 4666 
z
" transform="scale(0.015625)"/>
     </defs>
     <use xlink:href="#DejaVuSans-35"/>
    </g>
   </g>
   <g id="text_6">
    <!-- 3 -->
    <g transform="translate(186.747774 130.847333) scale(0.1 -0.1)">
     <use xlink:href="#DejaVuSans-33"/>
    </g>
   </g>
   <g id="text_7">
    <!-- BCoorLang -->
    <g transform="translate(13.840845 30.161232) scale(0.12 -0.12)">
     <defs>
      <path id="DejaVuSans-42" d="M 1259 2228 
L 1259 519 
L 2272 519 
Q 2781 519 3026 730 
Q 3272 941 3272 1375 
Q 3272 1813 3026 2020 
Q 2781 2228 2272 2228 
L 1259 2228 
z
M 1259 4147 
L 1259 2741 
L 2194 2741 
Q 2656 2741 2882 2914 
Q 3109 3088 3109 3444 
Q 3109 3797 2882 3972 
Q 2656 4147 2194 4147 
L 1259 4147 
z
M 628 4666 
L 2241 4666 
Q 2963 4666 3353 4366 
Q 3744 4066 3744 3513 
Q 3744 3084 3544 2831 
Q 3344 2578 2956 2516 
Q 3422 2416 3680 2098 
Q 3938 1781 3938 1306 
Q 3938 681 3513 340 
Q 3088 0 2303 0 
L 628 0 
L 628 4666 
z
" transform="scale(0.015625)"/>
      <path id="DejaVuSans-43" d="M 4122 4306 
L 4122 3641 
Q 3803 3938 3442 4084 
Q 3081 4231 2675 4231 
Q 1875 4231 1450 3742 
Q 1025 3253 1025 2328 
Q 1025 1406 1450 917 
Q 1875 428 2675 428 
Q 3081 428 3442 575 
Q 3803 722 4122 1019 
L 4122 359 
Q 3791 134 3420 21 
Q 3050 -91 2638 -91 
Q 1578 -91 968 557 
Q 359 1206 359 2328 
Q 359 3453 968 4101 
Q 1578 4750 2638 4750 
Q 3056 4750 3426 4639 
Q 3797 4528 4122 4306 
z
" transform="scale(0.015625)"/>
      <path id="DejaVuSans-6f" d="M 1959 3097 
Q 1497 3097 1228 2736 
Q 959 2375 959 1747 
Q 959 1119 1226 758 
Q 1494 397 1959 397 
Q 2419 397 2687 759 
Q 2956 1122 2956 1747 
Q 2956 2369 2687 2733 
Q 2419 3097 1959 3097 
z
M 1959 3584 
Q 2709 3584 3137 3096 
Q 3566 2609 3566 1747 
Q 3566 888 3137 398 
Q 2709 -91 1959 -91 
Q 1206 -91 779 398 
Q 353 888 353 1747 
Q 353 2609 779 3096 
Q 1206 3584 1959 3584 
z
" transform="scale(0.015625)"/>
      <path id="DejaVuSans-72" d="M 2631 2963 
Q 2534 3019 2420 3045 
Q 2306 3072 2169 3072 
Q 1681 3072 1420 2755 
Q 1159 2438 1159 1844 
L 1159 0 
L 581 0 
L 581 3500 
L 1159 3500 
L 1159 2956 
Q 1341 3275 1631 3429 
Q 1922 3584 2338 3584 
Q 2397 3584 2469 3576 
Q 2541 3569 2628 3553 
L 2631 2963 
z
" transform="scale(0.015625)"/>
      <path id="DejaVuSans-4c" d="M 628 4666 
L 1259 4666 
L 1259 531 
L 3531 531 
L 3531 0 
L 628 0 
L 628 4666 
z
" transform="scale(0.015625)"/>
      <path id="DejaVuSans-61" d="M 2194 1759 
Q 1497 1759 1228 1600 
Q 959 1441 959 1056 
Q 959 750 1161 570 
Q 1363 391 1709 391 
Q 2188 391 2477 730 
Q 2766 1069 2766 1631 
L 2766 1759 
L 2194 1759 
z
M 3341 1997 
L 3341 0 
L 2766 0 
L 2766 531 
Q 2569 213 2275 61 
Q 1981 -91 1556 -91 
Q 1019 -91 701 211 
Q 384 513 384 1019 
Q 384 1609 779 1909 
Q 1175 2209 1959 2209 
L 2766 2209 
L 2766 2266 
Q 2766 2663 2505 2880 
Q 2244 3097 1772 3097 
Q 1472 3097 1187 3025 
Q 903 2953 641 2809 
L 641 3341 
Q 956 3463 1253 3523 
Q 1550 3584 1831 3584 
Q 2591 3584 2966 3190 
Q 3341 2797 3341 1997 
z
" transform="scale(0.015625)"/>
      <path id="DejaVuSans-6e" d="M 3513 2113 
L 3513 0 
L 2938 0 
L 2938 2094 
Q 2938 2591 2744 2837 
Q 2550 3084 2163 3084 
Q 1697 3084 1428 2787 
Q 1159 2491 1159 1978 
L 1159 0 
L 581 0 
L 581 3500 
L 1159 3500 
L 1159 2956 
Q 1366 3272 1645 3428 
Q 1925 3584 2291 3584 
Q 2894 3584 3203 3211 
Q 3513 2838 3513 2113 
z
" transform="scale(0.015625)"/>
      <path id="DejaVuSans-67" d="M 2906 1791 
Q 2906 2416 2648 2759 
Q 2391 3103 1925 3103 
Q 1463 3103 1205 2759 
Q 947 2416 947 1791 
Q 947 1169 1205 825 
Q 1463 481 1925 481 
Q 2391 481 2648 825 
Q 2906 1169 2906 1791 
z
M 3481 434 
Q 3481 -459 3084 -895 
Q 2688 -1331 1869 -1331 
Q 1566 -1331 1297 -1286 
Q 1028 -1241 775 -1147 
L 775 -588 
Q 1028 -725 1275 -790 
Q 1522 -856 1778 -856 
Q 2344 -856 2625 -561 
Q 2906 -266 2906 331 
L 2906 616 
Q 2728 306 2450 153 
Q 2172 0 1784 0 
Q 1141 0 747 490 
Q 353 981 353 1791 
Q 353 2603 747 3093 
Q 1141 3584 1784 3584 
Q 2172 3584 2450 3431 
Q 2728 3278 2906 2969 
L 2906 3500 
L 3481 3500 
L 3481 434 
z
" transform="scale(0.015625)"/>
     </defs>
     <use xlink:href="#DejaVuSans-42"/>
     <use xlink:href="#DejaVuSans-43" x="66.853516"/>
     <use xlink:href="#DejaVuSans-6f" x="136.677734"/>
     <use xlink:href="#DejaVuSans-6f" x="197.859375"/>
     <use xlink:href="#DejaVuSans-72" x="259.041016"/>
     <use xlink:href="#DejaVuSans-4c" x="300.154297"/>
     <use xlink:href="#DejaVuSans-61" x="355.867188"/>
     <use xlink:href="#DejaVuSans-6e" x="417.146484"/>
     <use xlink:href="#DejaVuSans-67" x="480.525391"/>
    </g>
   </g>
   <g id="text_8">
    <!-- Linda -->
    <g transform="translate(294.479917 34.330256) scale(0.12 -0.12)">
     <defs>
      <path id="DejaVuSans-69" d="M 603 3500 
L 1178 3500 
L 1178 0 
L 603 0 
L 603 3500 
z
M 603 4863 
L 1178 4863 
L 1178 4134 
L 603 4134 
L 603 4863 
z
" transform="scale(0.015625)"/>
      <path id="DejaVuSans-64" d="M 2906 2969 
L 2906 4863 
L 3481 4863 
L 3481 0 
L 2906 0 
L 2906 525 
Q 2725 213 2448 61 
Q 2172 -91 1784 -91 
Q 1150 -91 751 415 
Q 353 922 353 1747 
Q 353 2572 751 3078 
Q 1150 3584 1784 3584 
Q 2172 3584 2448 3432 
Q 2725 3281 2906 2969 
z
M 947 1747 
Q 947 1113 1208 752 
Q 1469 391 1925 391 
Q 2381 391 2643 752 
Q 2906 1113 2906 1747 
Q 2906 2381 2643 2742 
Q 2381 3103 1925 3103 
Q 1469 3103 1208 2742 
Q 947 2381 947 1747 
z
" transform="scale(0.015625)"/>
     </defs>
     <use xlink:href="#DejaVuSans-4c"/>
     <use xlink:href="#DejaVuSans-69" x="55.712891"/>
     <use xlink:href="#DejaVuSans-6e" x="83.496094"/>
     <use xlink:href="#DejaVuSans-64" x="146.875"/>
     <use xlink:href="#DejaVuSans-61" x="210.351562"/>
    </g>
   </g>
   <g id="text_9">
    <!-- MontiArc -->
    <g transform="translate(178.739814 262.874792) scale(0.12 -0.12)">
     <defs>
      <path id="DejaVuSans-4d" d="M 628 4666 
L 1569 4666 
L 2759 1491 
L 3956 4666 
L 4897 4666 
L 4897 0 
L 4281 0 
L 4281 4097 
L 3078 897 
L 2444 897 
L 1241 4097 
L 1241 0 
L 628 0 
L 628 4666 
z
" transform="scale(0.015625)"/>
      <path id="DejaVuSans-74" d="M 1172 4494 
L 1172 3500 
L 2356 3500 
L 2356 3053 
L 1172 3053 
L 1172 1153 
Q 1172 725 1289 603 
Q 1406 481 1766 481 
L 2356 481 
L 2356 0 
L 1766 0 
Q 1100 0 847 248 
Q 594 497 594 1153 
L 594 3053 
L 172 3053 
L 172 3500 
L 594 3500 
L 594 4494 
L 1172 4494 
z
" transform="scale(0.015625)"/>
      <path id="DejaVuSans-41" d="M 2188 4044 
L 1331 1722 
L 3047 1722 
L 2188 4044 
z
M 1831 4666 
L 2547 4666 
L 4325 0 
L 3669 0 
L 3244 1197 
L 1141 1197 
L 716 0 
L 50 0 
L 1831 4666 
z
" transform="scale(0.015625)"/>
      <path id="DejaVuSans-63" d="M 3122 3366 
L 3122 2828 
Q 2878 2963 2633 3030 
Q 2388 3097 2138 3097 
Q 1578 3097 1268 2742 
Q 959 2388 959 1747 
Q 959 1106 1268 751 
Q 1578 397 2138 397 
Q 2388 397 2633 464 
Q 2878 531 3122 666 
L 3122 134 
Q 2881 22 2623 -34 
Q 2366 -91 2075 -91 
Q 1284 -91 818 406 
Q 353 903 353 1747 
Q 353 2603 823 3093 
Q 1294 3584 2113 3584 
Q 2378 3584 2631 3529 
Q 2884 3475 3122 3366 
z
" transform="scale(0.015625)"/>
     </defs>
     <use xlink:href="#DejaVuSans-4d"/>
     <use xlink:href="#DejaVuSans-6f" x="86.279297"/>
     <use xlink:href="#DejaVuSans-6e" x="147.460938"/>
     <use xlink:href="#DejaVuSans-74" x="210.839844"/>
     <use xlink:href="#DejaVuSans-69" x="250.048828"/>
     <use xlink:href="#DejaVuSans-41" x="277.832031"/>
     <use xlink:href="#DejaVuSans-72" x="346.240234"/>
     <use xlink:href="#DejaVuSans-63" x="385.103516"/>
    </g>
   </g>
  </g>
 </g>
 <defs>
  <clipPath id="p18f2feb464">
   <rect x="7.2" y="7.2" width="357.12" height="259.725227"/>
  </clipPath>
 </defs>
</svg>
