<?xml version="1.0" encoding="utf-8" standalone="no"?>
<!DOCTYPE svg PUBLIC "-//W3C//DTD SVG 1.1//EN"
  "http://www.w3.org/Graphics/SVG/1.1/DTD/svg11.dtd">
<svg xmlns:xlink="http://www.w3.org/1999/xlink" width="371.52pt" height="269.382551pt" viewBox="0 0 371.52 269.382551" xmlns="http://www.w3.org/2000/svg" version="1.1">
 <metadata>
  <rdf:RDF xmlns:dc="http://purl.org/dc/elements/1.1/" xmlns:cc="http://creativecommons.org/ns#" xmlns:rdf="http://www.w3.org/1999/02/22-rdf-syntax-ns#">
   <cc:Work>
    <dc:type rdf:resource="http://purl.org/dc/dcmitype/StillImage"/>
    <dc:date>2024-01-18T13:59:43.577787</dc:date>
    <dc:format>image/svg+xml</dc:format>
    <dc:creator>
     <cc:Agent>
      <dc:title>Matplotlib v3.8.0, https://matplotlib.org/</dc:title>
     </cc:Agent>
    </dc:creator>
   </cc:Work>
  </rdf:RDF>
 </metadata>
 <defs>
  <style type="text/css">*{stroke-linejoin: round; stroke-linecap: butt}</style>
 </defs>
 <g id="figure_1">
  <g id="patch_1">
   <path d="M 0 269.382551 
L 371.52 269.382551 
L 371.52 0 
L 0 0 
z
" style="fill: #ffffff"/>
  </g>
  <g id="axes_1">
   <g id="patch_2">
    <path d="M 187.891756 53.218379 
C 175.283805 42.29493 160.03034 34.864355 143.657248 31.669976 
C 127.284157 28.475596 110.356236 29.627604 94.566877 35.010756 
C 78.777518 40.393909 64.671382 49.822513 53.659583 62.353373 
C 42.647783 74.884233 35.110177 90.085093 31.800792 106.435327 
C 28.491407 122.785561 29.524401 139.721161 34.796439 155.547968 
C 40.068477 171.374774 49.397697 185.546834 61.850847 196.64644 
C 74.303997 207.746045 89.451501 215.39031 105.778069 218.814537 
C 122.104638 222.238765 139.047081 221.324834 154.910553 216.164172 
C 142.13066 205.091753 132.518863 190.820362 127.062297 174.815674 
C 121.605732 158.810987 120.497816 141.640321 123.852333 125.067109 
C 127.20685 108.493898 134.904893 93.105611 146.15587 80.48263 
C 157.406847 67.859649 171.811945 58.449421 187.891756 53.218379 
" clip-path="url(#p832c85ec26)" style="fill: #ff0000; opacity: 0.4"/>
   </g>
   <g id="patch_3">
    <path d="M 288.367642 207.900397 
C 299.769812 202.743521 309.980455 195.279076 318.353845 185.979118 
C 326.727235 176.679161 333.083058 165.743957 337.019369 153.865054 
C 340.955679 141.986152 342.387712 129.419352 341.224905 116.959386 
C 340.062099 104.49942 336.329492 92.414603 330.263137 81.469183 
C 324.196783 70.523764 315.927314 60.953442 305.977696 53.36345 
C 296.028078 45.773459 284.612568 40.327241 272.453087 37.369219 
C 260.293606 34.411196 247.651999 34.005068 235.327727 36.176516 
C 223.003455 38.347965 211.261911 43.050231 200.845635 49.985941 
C 220.419184 46.534011 240.590558 49.279051 258.529874 57.835955 
C 276.469189 66.392859 291.296377 80.34184 300.9313 97.725967 
C 310.566224 115.110095 314.536212 135.076536 312.284307 154.824158 
C 310.032401 174.571779 301.669077 193.1318 288.367642 207.900397 
" clip-path="url(#p832c85ec26)" style="fill: #008000; opacity: 0.4"/>
   </g>
   <g id="patch_4">
    <path d="M 187.891756 53.218379 
C 188.565899 53.802452 189.231823 54.395944 189.889333 54.99868 
C 190.546842 55.601415 191.195873 56.213336 191.836234 56.834261 
C 193.264608 55.600392 194.731203 54.411475 196.233871 53.269252 
C 197.736538 52.127028 199.274544 51.032057 200.845635 49.985941 
C 198.652257 50.372758 196.473086 50.83621 194.312122 51.375444 
C 192.151159 51.914679 190.009727 52.529367 187.891756 53.218379 
M 154.910553 216.164172 
C 173.800426 232.530238 198.38161 240.841466 223.327339 239.296805 
C 248.273069 237.752145 271.64113 226.471859 288.367642 207.900397 
C 272.621708 215.021834 255.161713 217.490151 238.058766 215.012556 
C 220.955819 212.534961 204.914013 205.213452 191.836234 193.916508 
C 186.627533 198.967121 180.860043 203.40757 174.645543 207.151796 
C 168.431042 210.896023 161.809938 213.919682 154.910553 216.164172 
" clip-path="url(#p832c85ec26)" style="fill: #0000ff; opacity: 0.4"/>
   </g>
   <g id="patch_5">
    <path d="M 191.836234 56.834261 
C 191.195873 56.213336 190.546842 55.601415 189.889333 54.99868 
C 189.231823 54.395944 188.565899 53.802452 187.891756 53.218379 
C 171.811945 58.449421 157.406847 67.859649 146.15587 80.48263 
C 134.904893 93.105611 127.20685 108.493898 123.852333 125.067109 
C 120.497816 141.640321 121.605732 158.810987 127.062297 174.815674 
C 132.518863 190.820362 142.13066 205.091753 154.910553 216.164172 
C 161.809938 213.919682 168.431042 210.896023 174.645543 207.151796 
C 180.860043 203.40757 186.627533 198.967121 191.836234 193.916508 
C 181.993622 185.414191 174.096932 174.890663 168.684822 163.063768 
C 163.272712 151.236872 160.471104 138.381782 160.471104 125.375384 
C 160.471104 112.368986 163.272712 99.513896 168.684822 87.687001 
C 174.096932 75.860105 181.993622 65.336578 191.836234 56.834261 
" clip-path="url(#p832c85ec26)" style="fill: #b200b2; opacity: 0.4"/>
   </g>
   <g id="patch_6">
    <path d="M 191.836234 193.916508 
C 204.914013 205.213452 220.955819 212.534961 238.058766 215.012556 
C 255.161713 217.490151 272.621708 215.021834 288.367642 207.900397 
C 301.669077 193.1318 310.032401 174.571779 312.284307 154.824158 
C 314.536212 135.076536 310.566224 115.110095 300.9313 97.725967 
C 291.296377 80.34184 276.469189 66.392859 258.529874 57.835955 
C 240.590558 49.279051 220.419184 46.534011 200.845635 49.985941 
C 199.274544 51.032057 197.736538 52.127028 196.233871 53.269252 
C 194.731203 54.411475 193.264608 55.600392 191.836234 56.834261 
C 201.014705 65.734158 208.312655 76.387715 213.296058 88.161338 
C 218.279461 99.934962 220.847527 112.590529 220.847527 125.375384 
C 220.847527 138.160239 218.279461 150.815807 213.296058 162.58943 
C 208.312655 174.363053 201.014705 185.01661 191.836234 193.916508 
" clip-path="url(#p832c85ec26)" style="fill: #0059b2; opacity: 0.4"/>
   </g>
   <g id="patch_7">
    <path d="M 191.836234 193.916508 
C 201.014705 185.01661 208.312655 174.363053 213.296058 162.58943 
C 218.279461 150.815807 220.847527 138.160239 220.847527 125.375384 
C 220.847527 112.590529 218.279461 99.934962 213.296058 88.161338 
C 208.312655 76.387715 201.014705 65.734158 191.836234 56.834261 
C 181.993622 65.336578 174.096932 75.860105 168.684822 87.687001 
C 163.272712 99.513896 160.471104 112.368986 160.471104 125.375384 
C 160.471104 138.381782 163.272712 151.236872 168.684822 163.063768 
C 174.096932 174.890663 181.993622 185.414191 191.836234 193.916508 
" clip-path="url(#p832c85ec26)" style="fill: #663366; opacity: 0.4"/>
   </g>
   <g id="text_1">
    <!-- custom properties -->
    <g transform="translate(32.311719 90.516062) scale(0.1 -0.1)">
     <defs>
      <path id="DejaVuSans-63" d="M 3122 3366 
L 3122 2828 
Q 2878 2963 2633 3030 
Q 2388 3097 2138 3097 
Q 1578 3097 1268 2742 
Q 959 2388 959 1747 
Q 959 1106 1268 751 
Q 1578 397 2138 397 
Q 2388 397 2633 464 
Q 2878 531 3122 666 
L 3122 134 
Q 2881 22 2623 -34 
Q 2366 -91 2075 -91 
Q 1284 -91 818 406 
Q 353 903 353 1747 
Q 353 2603 823 3093 
Q 1294 3584 2113 3584 
Q 2378 3584 2631 3529 
Q 2884 3475 3122 3366 
z
" transform="scale(0.015625)"/>
      <path id="DejaVuSans-75" d="M 544 1381 
L 544 3500 
L 1119 3500 
L 1119 1403 
Q 1119 906 1312 657 
Q 1506 409 1894 409 
Q 2359 409 2629 706 
Q 2900 1003 2900 1516 
L 2900 3500 
L 3475 3500 
L 3475 0 
L 2900 0 
L 2900 538 
Q 2691 219 2414 64 
Q 2138 -91 1772 -91 
Q 1169 -91 856 284 
Q 544 659 544 1381 
z
M 1991 3584 
L 1991 3584 
z
" transform="scale(0.015625)"/>
      <path id="DejaVuSans-73" d="M 2834 3397 
L 2834 2853 
Q 2591 2978 2328 3040 
Q 2066 3103 1784 3103 
Q 1356 3103 1142 2972 
Q 928 2841 928 2578 
Q 928 2378 1081 2264 
Q 1234 2150 1697 2047 
L 1894 2003 
Q 2506 1872 2764 1633 
Q 3022 1394 3022 966 
Q 3022 478 2636 193 
Q 2250 -91 1575 -91 
Q 1294 -91 989 -36 
Q 684 19 347 128 
L 347 722 
Q 666 556 975 473 
Q 1284 391 1588 391 
Q 1994 391 2212 530 
Q 2431 669 2431 922 
Q 2431 1156 2273 1281 
Q 2116 1406 1581 1522 
L 1381 1569 
Q 847 1681 609 1914 
Q 372 2147 372 2553 
Q 372 3047 722 3315 
Q 1072 3584 1716 3584 
Q 2034 3584 2315 3537 
Q 2597 3491 2834 3397 
z
" transform="scale(0.015625)"/>
      <path id="DejaVuSans-74" d="M 1172 4494 
L 1172 3500 
L 2356 3500 
L 2356 3053 
L 1172 3053 
L 1172 1153 
Q 1172 725 1289 603 
Q 1406 481 1766 481 
L 2356 481 
L 2356 0 
L 1766 0 
Q 1100 0 847 248 
Q 594 497 594 1153 
L 594 3053 
L 172 3053 
L 172 3500 
L 594 3500 
L 594 4494 
L 1172 4494 
z
" transform="scale(0.015625)"/>
      <path id="DejaVuSans-6f" d="M 1959 3097 
Q 1497 3097 1228 2736 
Q 959 2375 959 1747 
Q 959 1119 1226 758 
Q 1494 397 1959 397 
Q 2419 397 2687 759 
Q 2956 1122 2956 1747 
Q 2956 2369 2687 2733 
Q 2419 3097 1959 3097 
z
M 1959 3584 
Q 2709 3584 3137 3096 
Q 3566 2609 3566 1747 
Q 3566 888 3137 398 
Q 2709 -91 1959 -91 
Q 1206 -91 779 398 
Q 353 888 353 1747 
Q 353 2609 779 3096 
Q 1206 3584 1959 3584 
z
" transform="scale(0.015625)"/>
      <path id="DejaVuSans-6d" d="M 3328 2828 
Q 3544 3216 3844 3400 
Q 4144 3584 4550 3584 
Q 5097 3584 5394 3201 
Q 5691 2819 5691 2113 
L 5691 0 
L 5113 0 
L 5113 2094 
Q 5113 2597 4934 2840 
Q 4756 3084 4391 3084 
Q 3944 3084 3684 2787 
Q 3425 2491 3425 1978 
L 3425 0 
L 2847 0 
L 2847 2094 
Q 2847 2600 2669 2842 
Q 2491 3084 2119 3084 
Q 1678 3084 1418 2786 
Q 1159 2488 1159 1978 
L 1159 0 
L 581 0 
L 581 3500 
L 1159 3500 
L 1159 2956 
Q 1356 3278 1631 3431 
Q 1906 3584 2284 3584 
Q 2666 3584 2933 3390 
Q 3200 3197 3328 2828 
z
" transform="scale(0.015625)"/>
      <path id="DejaVuSans-20" transform="scale(0.015625)"/>
      <path id="DejaVuSans-70" d="M 1159 525 
L 1159 -1331 
L 581 -1331 
L 581 3500 
L 1159 3500 
L 1159 2969 
Q 1341 3281 1617 3432 
Q 1894 3584 2278 3584 
Q 2916 3584 3314 3078 
Q 3713 2572 3713 1747 
Q 3713 922 3314 415 
Q 2916 -91 2278 -91 
Q 1894 -91 1617 61 
Q 1341 213 1159 525 
z
M 3116 1747 
Q 3116 2381 2855 2742 
Q 2594 3103 2138 3103 
Q 1681 3103 1420 2742 
Q 1159 2381 1159 1747 
Q 1159 1113 1420 752 
Q 1681 391 2138 391 
Q 2594 391 2855 752 
Q 3116 1113 3116 1747 
z
" transform="scale(0.015625)"/>
      <path id="DejaVuSans-72" d="M 2631 2963 
Q 2534 3019 2420 3045 
Q 2306 3072 2169 3072 
Q 1681 3072 1420 2755 
Q 1159 2438 1159 1844 
L 1159 0 
L 581 0 
L 581 3500 
L 1159 3500 
L 1159 2956 
Q 1341 3275 1631 3429 
Q 1922 3584 2338 3584 
Q 2397 3584 2469 3576 
Q 2541 3569 2628 3553 
L 2631 2963 
z
" transform="scale(0.015625)"/>
      <path id="DejaVuSans-65" d="M 3597 1894 
L 3597 1613 
L 953 1613 
Q 991 1019 1311 708 
Q 1631 397 2203 397 
Q 2534 397 2845 478 
Q 3156 559 3463 722 
L 3463 178 
Q 3153 47 2828 -22 
Q 2503 -91 2169 -91 
Q 1331 -91 842 396 
Q 353 884 353 1716 
Q 353 2575 817 3079 
Q 1281 3584 2069 3584 
Q 2775 3584 3186 3129 
Q 3597 2675 3597 1894 
z
M 3022 2063 
Q 3016 2534 2758 2815 
Q 2500 3097 2075 3097 
Q 1594 3097 1305 2825 
Q 1016 2553 972 2059 
L 3022 2063 
z
" transform="scale(0.015625)"/>
      <path id="DejaVuSans-69" d="M 603 3500 
L 1178 3500 
L 1178 0 
L 603 0 
L 603 3500 
z
M 603 4863 
L 1178 4863 
L 1178 4134 
L 603 4134 
L 603 4863 
z
" transform="scale(0.015625)"/>
     </defs>
     <use xlink:href="#DejaVuSans-63"/>
     <use xlink:href="#DejaVuSans-75" x="54.980469"/>
     <use xlink:href="#DejaVuSans-73" x="118.359375"/>
     <use xlink:href="#DejaVuSans-74" x="170.458984"/>
     <use xlink:href="#DejaVuSans-6f" x="209.667969"/>
     <use xlink:href="#DejaVuSans-6d" x="270.849609"/>
     <use xlink:href="#DejaVuSans-20" x="368.261719"/>
     <use xlink:href="#DejaVuSans-70" x="400.048828"/>
     <use xlink:href="#DejaVuSans-72" x="463.525391"/>
     <use xlink:href="#DejaVuSans-6f" x="502.388672"/>
     <use xlink:href="#DejaVuSans-70" x="563.570312"/>
     <use xlink:href="#DejaVuSans-65" x="627.046875"/>
     <use xlink:href="#DejaVuSans-72" x="688.570312"/>
     <use xlink:href="#DejaVuSans-74" x="729.683594"/>
     <use xlink:href="#DejaVuSans-69" x="768.892578"/>
     <use xlink:href="#DejaVuSans-65" x="796.675781"/>
     <use xlink:href="#DejaVuSans-73" x="858.199219"/>
    </g>
    <!-- non-intrusive -->
    <g transform="translate(44.853906 101.713874) scale(0.1 -0.1)">
     <defs>
      <path id="DejaVuSans-6e" d="M 3513 2113 
L 3513 0 
L 2938 0 
L 2938 2094 
Q 2938 2591 2744 2837 
Q 2550 3084 2163 3084 
Q 1697 3084 1428 2787 
Q 1159 2491 1159 1978 
L 1159 0 
L 581 0 
L 581 3500 
L 1159 3500 
L 1159 2956 
Q 1366 3272 1645 3428 
Q 1925 3584 2291 3584 
Q 2894 3584 3203 3211 
Q 3513 2838 3513 2113 
z
" transform="scale(0.015625)"/>
      <path id="DejaVuSans-2d" d="M 313 2009 
L 1997 2009 
L 1997 1497 
L 313 1497 
L 313 2009 
z
" transform="scale(0.015625)"/>
      <path id="DejaVuSans-76" d="M 191 3500 
L 800 3500 
L 1894 563 
L 2988 3500 
L 3597 3500 
L 2284 0 
L 1503 0 
L 191 3500 
z
" transform="scale(0.015625)"/>
     </defs>
     <use xlink:href="#DejaVuSans-6e"/>
     <use xlink:href="#DejaVuSans-6f" x="63.378906"/>
     <use xlink:href="#DejaVuSans-6e" x="124.560547"/>
     <use xlink:href="#DejaVuSans-2d" x="187.939453"/>
     <use xlink:href="#DejaVuSans-69" x="224.023438"/>
     <use xlink:href="#DejaVuSans-6e" x="251.806641"/>
     <use xlink:href="#DejaVuSans-74" x="315.185547"/>
     <use xlink:href="#DejaVuSans-72" x="354.394531"/>
     <use xlink:href="#DejaVuSans-75" x="395.507812"/>
     <use xlink:href="#DejaVuSans-73" x="458.886719"/>
     <use xlink:href="#DejaVuSans-69" x="510.986328"/>
     <use xlink:href="#DejaVuSans-76" x="538.769531"/>
     <use xlink:href="#DejaVuSans-65" x="597.949219"/>
    </g>
    <!-- formal language -->
    <g transform="translate(36.846875 112.911687) scale(0.1 -0.1)">
     <defs>
      <path id="DejaVuSans-66" d="M 2375 4863 
L 2375 4384 
L 1825 4384 
Q 1516 4384 1395 4259 
Q 1275 4134 1275 3809 
L 1275 3500 
L 2222 3500 
L 2222 3053 
L 1275 3053 
L 1275 0 
L 697 0 
L 697 3053 
L 147 3053 
L 147 3500 
L 697 3500 
L 697 3744 
Q 697 4328 969 4595 
Q 1241 4863 1831 4863 
L 2375 4863 
z
" transform="scale(0.015625)"/>
      <path id="DejaVuSans-61" d="M 2194 1759 
Q 1497 1759 1228 1600 
Q 959 1441 959 1056 
Q 959 750 1161 570 
Q 1363 391 1709 391 
Q 2188 391 2477 730 
Q 2766 1069 2766 1631 
L 2766 1759 
L 2194 1759 
z
M 3341 1997 
L 3341 0 
L 2766 0 
L 2766 531 
Q 2569 213 2275 61 
Q 1981 -91 1556 -91 
Q 1019 -91 701 211 
Q 384 513 384 1019 
Q 384 1609 779 1909 
Q 1175 2209 1959 2209 
L 2766 2209 
L 2766 2266 
Q 2766 2663 2505 2880 
Q 2244 3097 1772 3097 
Q 1472 3097 1187 3025 
Q 903 2953 641 2809 
L 641 3341 
Q 956 3463 1253 3523 
Q 1550 3584 1831 3584 
Q 2591 3584 2966 3190 
Q 3341 2797 3341 1997 
z
" transform="scale(0.015625)"/>
      <path id="DejaVuSans-6c" d="M 603 4863 
L 1178 4863 
L 1178 0 
L 603 0 
L 603 4863 
z
" transform="scale(0.015625)"/>
      <path id="DejaVuSans-67" d="M 2906 1791 
Q 2906 2416 2648 2759 
Q 2391 3103 1925 3103 
Q 1463 3103 1205 2759 
Q 947 2416 947 1791 
Q 947 1169 1205 825 
Q 1463 481 1925 481 
Q 2391 481 2648 825 
Q 2906 1169 2906 1791 
z
M 3481 434 
Q 3481 -459 3084 -895 
Q 2688 -1331 1869 -1331 
Q 1566 -1331 1297 -1286 
Q 1028 -1241 775 -1147 
L 775 -588 
Q 1028 -725 1275 -790 
Q 1522 -856 1778 -856 
Q 2344 -856 2625 -561 
Q 2906 -266 2906 331 
L 2906 616 
Q 2728 306 2450 153 
Q 2172 0 1784 0 
Q 1141 0 747 490 
Q 353 981 353 1791 
Q 353 2603 747 3093 
Q 1141 3584 1784 3584 
Q 2172 3584 2450 3431 
Q 2728 3278 2906 2969 
L 2906 3500 
L 3481 3500 
L 3481 434 
z
" transform="scale(0.015625)"/>
     </defs>
     <use xlink:href="#DejaVuSans-66"/>
     <use xlink:href="#DejaVuSans-6f" x="35.205078"/>
     <use xlink:href="#DejaVuSans-72" x="96.386719"/>
     <use xlink:href="#DejaVuSans-6d" x="135.75"/>
     <use xlink:href="#DejaVuSans-61" x="233.162109"/>
     <use xlink:href="#DejaVuSans-6c" x="294.441406"/>
     <use xlink:href="#DejaVuSans-20" x="322.224609"/>
     <use xlink:href="#DejaVuSans-6c" x="354.011719"/>
     <use xlink:href="#DejaVuSans-61" x="381.794922"/>
     <use xlink:href="#DejaVuSans-6e" x="443.074219"/>
     <use xlink:href="#DejaVuSans-67" x="506.453125"/>
     <use xlink:href="#DejaVuSans-75" x="569.929688"/>
     <use xlink:href="#DejaVuSans-61" x="633.308594"/>
     <use xlink:href="#DejaVuSans-67" x="694.587891"/>
     <use xlink:href="#DejaVuSans-65" x="758.064453"/>
    </g>
    <!-- heterogeneous -->
    <g transform="translate(40.213281 124.109499) scale(0.1 -0.1)">
     <defs>
      <path id="DejaVuSans-68" d="M 3513 2113 
L 3513 0 
L 2938 0 
L 2938 2094 
Q 2938 2591 2744 2837 
Q 2550 3084 2163 3084 
Q 1697 3084 1428 2787 
Q 1159 2491 1159 1978 
L 1159 0 
L 581 0 
L 581 4863 
L 1159 4863 
L 1159 2956 
Q 1366 3272 1645 3428 
Q 1925 3584 2291 3584 
Q 2894 3584 3203 3211 
Q 3513 2838 3513 2113 
z
" transform="scale(0.015625)"/>
     </defs>
     <use xlink:href="#DejaVuSans-68"/>
     <use xlink:href="#DejaVuSans-65" x="63.378906"/>
     <use xlink:href="#DejaVuSans-74" x="124.902344"/>
     <use xlink:href="#DejaVuSans-65" x="164.111328"/>
     <use xlink:href="#DejaVuSans-72" x="225.634766"/>
     <use xlink:href="#DejaVuSans-6f" x="264.498047"/>
     <use xlink:href="#DejaVuSans-67" x="325.679688"/>
     <use xlink:href="#DejaVuSans-65" x="389.15625"/>
     <use xlink:href="#DejaVuSans-6e" x="450.679688"/>
     <use xlink:href="#DejaVuSans-65" x="514.058594"/>
     <use xlink:href="#DejaVuSans-6f" x="575.582031"/>
     <use xlink:href="#DejaVuSans-75" x="636.763672"/>
     <use xlink:href="#DejaVuSans-73" x="700.142578"/>
    </g>
    <!-- event-scheduling -->
    <g transform="translate(34.717969 135.307312) scale(0.1 -0.1)">
     <defs>
      <path id="DejaVuSans-64" d="M 2906 2969 
L 2906 4863 
L 3481 4863 
L 3481 0 
L 2906 0 
L 2906 525 
Q 2725 213 2448 61 
Q 2172 -91 1784 -91 
Q 1150 -91 751 415 
Q 353 922 353 1747 
Q 353 2572 751 3078 
Q 1150 3584 1784 3584 
Q 2172 3584 2448 3432 
Q 2725 3281 2906 2969 
z
M 947 1747 
Q 947 1113 1208 752 
Q 1469 391 1925 391 
Q 2381 391 2643 752 
Q 2906 1113 2906 1747 
Q 2906 2381 2643 2742 
Q 2381 3103 1925 3103 
Q 1469 3103 1208 2742 
Q 947 2381 947 1747 
z
" transform="scale(0.015625)"/>
     </defs>
     <use xlink:href="#DejaVuSans-65"/>
     <use xlink:href="#DejaVuSans-76" x="61.523438"/>
     <use xlink:href="#DejaVuSans-65" x="120.703125"/>
     <use xlink:href="#DejaVuSans-6e" x="182.226562"/>
     <use xlink:href="#DejaVuSans-74" x="245.605469"/>
     <use xlink:href="#DejaVuSans-2d" x="284.814453"/>
     <use xlink:href="#DejaVuSans-73" x="320.898438"/>
     <use xlink:href="#DejaVuSans-63" x="372.998047"/>
     <use xlink:href="#DejaVuSans-68" x="427.978516"/>
     <use xlink:href="#DejaVuSans-65" x="491.357422"/>
     <use xlink:href="#DejaVuSans-64" x="552.880859"/>
     <use xlink:href="#DejaVuSans-75" x="616.357422"/>
     <use xlink:href="#DejaVuSans-6c" x="679.736328"/>
     <use xlink:href="#DejaVuSans-69" x="707.519531"/>
     <use xlink:href="#DejaVuSans-6e" x="735.302734"/>
     <use xlink:href="#DejaVuSans-67" x="798.681641"/>
    </g>
    <!-- dedicated elements -->
    <g transform="translate(28.176562 146.505124) scale(0.1 -0.1)">
     <use xlink:href="#DejaVuSans-64"/>
     <use xlink:href="#DejaVuSans-65" x="63.476562"/>
     <use xlink:href="#DejaVuSans-64" x="125"/>
     <use xlink:href="#DejaVuSans-69" x="188.476562"/>
     <use xlink:href="#DejaVuSans-63" x="216.259766"/>
     <use xlink:href="#DejaVuSans-61" x="271.240234"/>
     <use xlink:href="#DejaVuSans-74" x="332.519531"/>
     <use xlink:href="#DejaVuSans-65" x="371.728516"/>
     <use xlink:href="#DejaVuSans-64" x="433.251953"/>
     <use xlink:href="#DejaVuSans-20" x="496.728516"/>
     <use xlink:href="#DejaVuSans-65" x="528.515625"/>
     <use xlink:href="#DejaVuSans-6c" x="590.039062"/>
     <use xlink:href="#DejaVuSans-65" x="617.822266"/>
     <use xlink:href="#DejaVuSans-6d" x="679.345703"/>
     <use xlink:href="#DejaVuSans-65" x="776.757812"/>
     <use xlink:href="#DejaVuSans-6e" x="838.28125"/>
     <use xlink:href="#DejaVuSans-74" x="901.660156"/>
     <use xlink:href="#DejaVuSans-73" x="940.869141"/>
    </g>
   </g>
   <g id="text_2">
    <!-- co-simulation -->
    <g transform="translate(281.827688 86.758044) scale(0.1 -0.1)">
     <use xlink:href="#DejaVuSans-63"/>
     <use xlink:href="#DejaVuSans-6f" x="54.980469"/>
     <use xlink:href="#DejaVuSans-2d" x="118.037109"/>
     <use xlink:href="#DejaVuSans-73" x="154.121094"/>
     <use xlink:href="#DejaVuSans-69" x="206.220703"/>
     <use xlink:href="#DejaVuSans-6d" x="234.003906"/>
     <use xlink:href="#DejaVuSans-75" x="331.416016"/>
     <use xlink:href="#DejaVuSans-6c" x="394.794922"/>
     <use xlink:href="#DejaVuSans-61" x="422.578125"/>
     <use xlink:href="#DejaVuSans-74" x="483.857422"/>
     <use xlink:href="#DejaVuSans-69" x="523.066406"/>
     <use xlink:href="#DejaVuSans-6f" x="550.849609"/>
     <use xlink:href="#DejaVuSans-6e" x="612.03125"/>
    </g>
    <!-- hybrid -->
    <g transform="translate(299.676125 97.955856) scale(0.1 -0.1)">
     <defs>
      <path id="DejaVuSans-79" d="M 2059 -325 
Q 1816 -950 1584 -1140 
Q 1353 -1331 966 -1331 
L 506 -1331 
L 506 -850 
L 844 -850 
Q 1081 -850 1212 -737 
Q 1344 -625 1503 -206 
L 1606 56 
L 191 3500 
L 800 3500 
L 1894 763 
L 2988 3500 
L 3597 3500 
L 2059 -325 
z
" transform="scale(0.015625)"/>
      <path id="DejaVuSans-62" d="M 3116 1747 
Q 3116 2381 2855 2742 
Q 2594 3103 2138 3103 
Q 1681 3103 1420 2742 
Q 1159 2381 1159 1747 
Q 1159 1113 1420 752 
Q 1681 391 2138 391 
Q 2594 391 2855 752 
Q 3116 1113 3116 1747 
z
M 1159 2969 
Q 1341 3281 1617 3432 
Q 1894 3584 2278 3584 
Q 2916 3584 3314 3078 
Q 3713 2572 3713 1747 
Q 3713 922 3314 415 
Q 2916 -91 2278 -91 
Q 1894 -91 1617 61 
Q 1341 213 1159 525 
L 1159 0 
L 581 0 
L 581 4863 
L 1159 4863 
L 1159 2969 
z
" transform="scale(0.015625)"/>
     </defs>
     <use xlink:href="#DejaVuSans-68"/>
     <use xlink:href="#DejaVuSans-79" x="63.378906"/>
     <use xlink:href="#DejaVuSans-62" x="122.558594"/>
     <use xlink:href="#DejaVuSans-72" x="186.035156"/>
     <use xlink:href="#DejaVuSans-69" x="227.148438"/>
     <use xlink:href="#DejaVuSans-64" x="254.931641"/>
    </g>
   </g>
   <g id="text_3">
    <!-- programming language -->
    <g transform="translate(162.791684 228.616534) scale(0.1 -0.1)">
     <use xlink:href="#DejaVuSans-70"/>
     <use xlink:href="#DejaVuSans-72" x="63.476562"/>
     <use xlink:href="#DejaVuSans-6f" x="102.339844"/>
     <use xlink:href="#DejaVuSans-67" x="163.521484"/>
     <use xlink:href="#DejaVuSans-72" x="226.998047"/>
     <use xlink:href="#DejaVuSans-61" x="268.111328"/>
     <use xlink:href="#DejaVuSans-6d" x="329.390625"/>
     <use xlink:href="#DejaVuSans-6d" x="426.802734"/>
     <use xlink:href="#DejaVuSans-69" x="524.214844"/>
     <use xlink:href="#DejaVuSans-6e" x="551.998047"/>
     <use xlink:href="#DejaVuSans-67" x="615.376953"/>
     <use xlink:href="#DejaVuSans-20" x="678.853516"/>
     <use xlink:href="#DejaVuSans-6c" x="710.640625"/>
     <use xlink:href="#DejaVuSans-61" x="738.423828"/>
     <use xlink:href="#DejaVuSans-6e" x="799.703125"/>
     <use xlink:href="#DejaVuSans-67" x="863.082031"/>
     <use xlink:href="#DejaVuSans-75" x="926.558594"/>
     <use xlink:href="#DejaVuSans-61" x="989.9375"/>
     <use xlink:href="#DejaVuSans-67" x="1051.216797"/>
     <use xlink:href="#DejaVuSans-65" x="1114.693359"/>
    </g>
   </g>
   <g id="text_4">
    <!-- logical -->
    <g transform="translate(128.299825 130.056688) scale(0.1 -0.1)">
     <use xlink:href="#DejaVuSans-6c"/>
     <use xlink:href="#DejaVuSans-6f" x="27.783203"/>
     <use xlink:href="#DejaVuSans-67" x="88.964844"/>
     <use xlink:href="#DejaVuSans-69" x="152.441406"/>
     <use xlink:href="#DejaVuSans-63" x="180.224609"/>
     <use xlink:href="#DejaVuSans-61" x="235.205078"/>
     <use xlink:href="#DejaVuSans-6c" x="296.484375"/>
    </g>
    <!-- discrete event -->
    <g transform="translate(108.709981 141.254501) scale(0.1 -0.1)">
     <use xlink:href="#DejaVuSans-64"/>
     <use xlink:href="#DejaVuSans-69" x="63.476562"/>
     <use xlink:href="#DejaVuSans-73" x="91.259766"/>
     <use xlink:href="#DejaVuSans-63" x="143.359375"/>
     <use xlink:href="#DejaVuSans-72" x="198.339844"/>
     <use xlink:href="#DejaVuSans-65" x="237.203125"/>
     <use xlink:href="#DejaVuSans-74" x="298.726562"/>
     <use xlink:href="#DejaVuSans-65" x="337.935547"/>
     <use xlink:href="#DejaVuSans-20" x="399.458984"/>
     <use xlink:href="#DejaVuSans-65" x="431.246094"/>
     <use xlink:href="#DejaVuSans-76" x="492.769531"/>
     <use xlink:href="#DejaVuSans-65" x="551.949219"/>
     <use xlink:href="#DejaVuSans-6e" x="613.472656"/>
     <use xlink:href="#DejaVuSans-74" x="676.851562"/>
    </g>
   </g>
   <g id="text_5">
    <!-- causal -->
    <g transform="translate(245.049244 110.304658) scale(0.1 -0.1)">
     <use xlink:href="#DejaVuSans-63"/>
     <use xlink:href="#DejaVuSans-61" x="54.980469"/>
     <use xlink:href="#DejaVuSans-75" x="116.259766"/>
     <use xlink:href="#DejaVuSans-73" x="179.638672"/>
     <use xlink:href="#DejaVuSans-61" x="231.738281"/>
     <use xlink:href="#DejaVuSans-6c" x="293.017578"/>
    </g>
    <!-- architecture based -->
    <g transform="translate(214.157838 121.502471) scale(0.1 -0.1)">
     <use xlink:href="#DejaVuSans-61"/>
     <use xlink:href="#DejaVuSans-72" x="61.279297"/>
     <use xlink:href="#DejaVuSans-63" x="100.142578"/>
     <use xlink:href="#DejaVuSans-68" x="155.123047"/>
     <use xlink:href="#DejaVuSans-69" x="218.501953"/>
     <use xlink:href="#DejaVuSans-74" x="246.285156"/>
     <use xlink:href="#DejaVuSans-65" x="285.494141"/>
     <use xlink:href="#DejaVuSans-63" x="347.017578"/>
     <use xlink:href="#DejaVuSans-74" x="401.998047"/>
     <use xlink:href="#DejaVuSans-75" x="441.207031"/>
     <use xlink:href="#DejaVuSans-72" x="504.585938"/>
     <use xlink:href="#DejaVuSans-65" x="543.449219"/>
     <use xlink:href="#DejaVuSans-20" x="604.972656"/>
     <use xlink:href="#DejaVuSans-62" x="636.759766"/>
     <use xlink:href="#DejaVuSans-61" x="700.236328"/>
     <use xlink:href="#DejaVuSans-73" x="761.515625"/>
     <use xlink:href="#DejaVuSans-65" x="813.615234"/>
     <use xlink:href="#DejaVuSans-64" x="875.138672"/>
    </g>
    <!-- homogeneous -->
    <g transform="translate(225.602369 132.700283) scale(0.1 -0.1)">
     <use xlink:href="#DejaVuSans-68"/>
     <use xlink:href="#DejaVuSans-6f" x="63.378906"/>
     <use xlink:href="#DejaVuSans-6d" x="124.560547"/>
     <use xlink:href="#DejaVuSans-6f" x="221.972656"/>
     <use xlink:href="#DejaVuSans-67" x="283.154297"/>
     <use xlink:href="#DejaVuSans-65" x="346.630859"/>
     <use xlink:href="#DejaVuSans-6e" x="408.154297"/>
     <use xlink:href="#DejaVuSans-65" x="471.533203"/>
     <use xlink:href="#DejaVuSans-6f" x="533.056641"/>
     <use xlink:href="#DejaVuSans-75" x="594.238281"/>
     <use xlink:href="#DejaVuSans-73" x="657.617188"/>
    </g>
    <!-- intrusive -->
    <g transform="translate(239.317213 143.898096) scale(0.1 -0.1)">
     <use xlink:href="#DejaVuSans-69"/>
     <use xlink:href="#DejaVuSans-6e" x="27.783203"/>
     <use xlink:href="#DejaVuSans-74" x="91.162109"/>
     <use xlink:href="#DejaVuSans-72" x="130.371094"/>
     <use xlink:href="#DejaVuSans-75" x="171.484375"/>
     <use xlink:href="#DejaVuSans-73" x="234.863281"/>
     <use xlink:href="#DejaVuSans-69" x="286.962891"/>
     <use xlink:href="#DejaVuSans-76" x="314.746094"/>
     <use xlink:href="#DejaVuSans-65" x="373.925781"/>
    </g>
    <!-- data-exchange -->
    <g transform="translate(223.760182 155.095908) scale(0.1 -0.1)">
     <defs>
      <path id="DejaVuSans-78" d="M 3513 3500 
L 2247 1797 
L 3578 0 
L 2900 0 
L 1881 1375 
L 863 0 
L 184 0 
L 1544 1831 
L 300 3500 
L 978 3500 
L 1906 2253 
L 2834 3500 
L 3513 3500 
z
" transform="scale(0.015625)"/>
     </defs>
     <use xlink:href="#DejaVuSans-64"/>
     <use xlink:href="#DejaVuSans-61" x="63.476562"/>
     <use xlink:href="#DejaVuSans-74" x="124.755859"/>
     <use xlink:href="#DejaVuSans-61" x="163.964844"/>
     <use xlink:href="#DejaVuSans-2d" x="225.244141"/>
     <use xlink:href="#DejaVuSans-65" x="261.328125"/>
     <use xlink:href="#DejaVuSans-78" x="321.101562"/>
     <use xlink:href="#DejaVuSans-63" x="378.53125"/>
     <use xlink:href="#DejaVuSans-68" x="433.511719"/>
     <use xlink:href="#DejaVuSans-61" x="496.890625"/>
     <use xlink:href="#DejaVuSans-6e" x="558.169922"/>
     <use xlink:href="#DejaVuSans-67" x="621.548828"/>
     <use xlink:href="#DejaVuSans-65" x="685.025391"/>
    </g>
   </g>
   <g id="text_6">
    <!-- predefined -->
    <g transform="translate(163.646034 122.535853) scale(0.1 -0.1)">
     <use xlink:href="#DejaVuSans-70"/>
     <use xlink:href="#DejaVuSans-72" x="63.476562"/>
     <use xlink:href="#DejaVuSans-65" x="102.339844"/>
     <use xlink:href="#DejaVuSans-64" x="163.863281"/>
     <use xlink:href="#DejaVuSans-65" x="227.339844"/>
     <use xlink:href="#DejaVuSans-66" x="288.863281"/>
     <use xlink:href="#DejaVuSans-69" x="324.068359"/>
     <use xlink:href="#DejaVuSans-6e" x="351.851562"/>
     <use xlink:href="#DejaVuSans-65" x="415.230469"/>
     <use xlink:href="#DejaVuSans-64" x="476.753906"/>
    </g>
    <!-- simulation -->
    <g transform="translate(164.596034 133.733665) scale(0.1 -0.1)">
     <use xlink:href="#DejaVuSans-73"/>
     <use xlink:href="#DejaVuSans-69" x="52.099609"/>
     <use xlink:href="#DejaVuSans-6d" x="79.882812"/>
     <use xlink:href="#DejaVuSans-75" x="177.294922"/>
     <use xlink:href="#DejaVuSans-6c" x="240.673828"/>
     <use xlink:href="#DejaVuSans-61" x="268.457031"/>
     <use xlink:href="#DejaVuSans-74" x="329.736328"/>
     <use xlink:href="#DejaVuSans-69" x="368.945312"/>
     <use xlink:href="#DejaVuSans-6f" x="396.728516"/>
     <use xlink:href="#DejaVuSans-6e" x="457.910156"/>
    </g>
   </g>
   <g id="text_7">
    <!-- BCoorLang -->
    <g transform="translate(12.355563 29.903241) scale(0.12 -0.12)">
     <defs>
      <path id="DejaVuSans-42" d="M 1259 2228 
L 1259 519 
L 2272 519 
Q 2781 519 3026 730 
Q 3272 941 3272 1375 
Q 3272 1813 3026 2020 
Q 2781 2228 2272 2228 
L 1259 2228 
z
M 1259 4147 
L 1259 2741 
L 2194 2741 
Q 2656 2741 2882 2914 
Q 3109 3088 3109 3444 
Q 3109 3797 2882 3972 
Q 2656 4147 2194 4147 
L 1259 4147 
z
M 628 4666 
L 2241 4666 
Q 2963 4666 3353 4366 
Q 3744 4066 3744 3513 
Q 3744 3084 3544 2831 
Q 3344 2578 2956 2516 
Q 3422 2416 3680 2098 
Q 3938 1781 3938 1306 
Q 3938 681 3513 340 
Q 3088 0 2303 0 
L 628 0 
L 628 4666 
z
" transform="scale(0.015625)"/>
      <path id="DejaVuSans-43" d="M 4122 4306 
L 4122 3641 
Q 3803 3938 3442 4084 
Q 3081 4231 2675 4231 
Q 1875 4231 1450 3742 
Q 1025 3253 1025 2328 
Q 1025 1406 1450 917 
Q 1875 428 2675 428 
Q 3081 428 3442 575 
Q 3803 722 4122 1019 
L 4122 359 
Q 3791 134 3420 21 
Q 3050 -91 2638 -91 
Q 1578 -91 968 557 
Q 359 1206 359 2328 
Q 359 3453 968 4101 
Q 1578 4750 2638 4750 
Q 3056 4750 3426 4639 
Q 3797 4528 4122 4306 
z
" transform="scale(0.015625)"/>
      <path id="DejaVuSans-4c" d="M 628 4666 
L 1259 4666 
L 1259 531 
L 3531 531 
L 3531 0 
L 628 0 
L 628 4666 
z
" transform="scale(0.015625)"/>
     </defs>
     <use xlink:href="#DejaVuSans-42"/>
     <use xlink:href="#DejaVuSans-43" x="66.853516"/>
     <use xlink:href="#DejaVuSans-6f" x="136.677734"/>
     <use xlink:href="#DejaVuSans-6f" x="197.859375"/>
     <use xlink:href="#DejaVuSans-72" x="259.041016"/>
     <use xlink:href="#DejaVuSans-4c" x="300.154297"/>
     <use xlink:href="#DejaVuSans-61" x="355.867188"/>
     <use xlink:href="#DejaVuSans-6e" x="417.146484"/>
     <use xlink:href="#DejaVuSans-67" x="480.525391"/>
    </g>
   </g>
   <g id="text_8">
    <!-- DACCOSIM -->
    <g transform="translate(296.330345 34.802557) scale(0.12 -0.12)">
     <defs>
      <path id="DejaVuSans-44" d="M 1259 4147 
L 1259 519 
L 2022 519 
Q 2988 519 3436 956 
Q 3884 1394 3884 2338 
Q 3884 3275 3436 3711 
Q 2988 4147 2022 4147 
L 1259 4147 
z
M 628 4666 
L 1925 4666 
Q 3281 4666 3915 4102 
Q 4550 3538 4550 2338 
Q 4550 1131 3912 565 
Q 3275 0 1925 0 
L 628 0 
L 628 4666 
z
" transform="scale(0.015625)"/>
      <path id="DejaVuSans-41" d="M 2188 4044 
L 1331 1722 
L 3047 1722 
L 2188 4044 
z
M 1831 4666 
L 2547 4666 
L 4325 0 
L 3669 0 
L 3244 1197 
L 1141 1197 
L 716 0 
L 50 0 
L 1831 4666 
z
" transform="scale(0.015625)"/>
      <path id="DejaVuSans-4f" d="M 2522 4238 
Q 1834 4238 1429 3725 
Q 1025 3213 1025 2328 
Q 1025 1447 1429 934 
Q 1834 422 2522 422 
Q 3209 422 3611 934 
Q 4013 1447 4013 2328 
Q 4013 3213 3611 3725 
Q 3209 4238 2522 4238 
z
M 2522 4750 
Q 3503 4750 4090 4092 
Q 4678 3434 4678 2328 
Q 4678 1225 4090 567 
Q 3503 -91 2522 -91 
Q 1538 -91 948 565 
Q 359 1222 359 2328 
Q 359 3434 948 4092 
Q 1538 4750 2522 4750 
z
" transform="scale(0.015625)"/>
      <path id="DejaVuSans-53" d="M 3425 4513 
L 3425 3897 
Q 3066 4069 2747 4153 
Q 2428 4238 2131 4238 
Q 1616 4238 1336 4038 
Q 1056 3838 1056 3469 
Q 1056 3159 1242 3001 
Q 1428 2844 1947 2747 
L 2328 2669 
Q 3034 2534 3370 2195 
Q 3706 1856 3706 1288 
Q 3706 609 3251 259 
Q 2797 -91 1919 -91 
Q 1588 -91 1214 -16 
Q 841 59 441 206 
L 441 856 
Q 825 641 1194 531 
Q 1563 422 1919 422 
Q 2459 422 2753 634 
Q 3047 847 3047 1241 
Q 3047 1584 2836 1778 
Q 2625 1972 2144 2069 
L 1759 2144 
Q 1053 2284 737 2584 
Q 422 2884 422 3419 
Q 422 4038 858 4394 
Q 1294 4750 2059 4750 
Q 2388 4750 2728 4690 
Q 3069 4631 3425 4513 
z
" transform="scale(0.015625)"/>
      <path id="DejaVuSans-49" d="M 628 4666 
L 1259 4666 
L 1259 0 
L 628 0 
L 628 4666 
z
" transform="scale(0.015625)"/>
      <path id="DejaVuSans-4d" d="M 628 4666 
L 1569 4666 
L 2759 1491 
L 3956 4666 
L 4897 4666 
L 4897 0 
L 4281 0 
L 4281 4097 
L 3078 897 
L 2444 897 
L 1241 4097 
L 1241 0 
L 628 0 
L 628 4666 
z
" transform="scale(0.015625)"/>
     </defs>
     <use xlink:href="#DejaVuSans-44"/>
     <use xlink:href="#DejaVuSans-41" x="75.251953"/>
     <use xlink:href="#DejaVuSans-43" x="141.910156"/>
     <use xlink:href="#DejaVuSans-43" x="211.734375"/>
     <use xlink:href="#DejaVuSans-4f" x="281.558594"/>
     <use xlink:href="#DejaVuSans-53" x="360.269531"/>
     <use xlink:href="#DejaVuSans-49" x="423.746094"/>
     <use xlink:href="#DejaVuSans-4d" x="453.238281"/>
    </g>
   </g>
   <g id="text_9">
    <!-- MontiArc -->
    <g transform="translate(191.022238 258.144649) scale(0.12 -0.12)">
     <use xlink:href="#DejaVuSans-4d"/>
     <use xlink:href="#DejaVuSans-6f" x="86.279297"/>
     <use xlink:href="#DejaVuSans-6e" x="147.460938"/>
     <use xlink:href="#DejaVuSans-74" x="210.839844"/>
     <use xlink:href="#DejaVuSans-69" x="250.048828"/>
     <use xlink:href="#DejaVuSans-41" x="277.832031"/>
     <use xlink:href="#DejaVuSans-72" x="346.240234"/>
     <use xlink:href="#DejaVuSans-63" x="385.103516"/>
    </g>
   </g>
  </g>
 </g>
 <defs>
  <clipPath id="p832c85ec26">
   <rect x="7.2" y="7.2" width="357.12" height="254.982551"/>
  </clipPath>
 </defs>
</svg>
